<?xml version="1.0" encoding="utf-8"?>
<!-- Designed by Vexels.com - 2016 All Rights Reserved - https://vexels.com/terms-and-conditions/  -->

<svg version="1.1" id="Layer_1" xmlns="http://www.w3.org/2000/svg" xmlns:xlink="http://www.w3.org/1999/xlink" x="0px" y="0px"
	 width="1200px" height="1200px" viewBox="0 0 1200 1200" enable-background="new 0 0 1200 1200" xml:space="preserve">
<g>
	<path fill="#C6C6C6" d="M122.139,620.76l30.354-60.708c0,0,56.174-33.395,65.275-34.909c9.112-1.514,605.628,15.182,605.628,15.182
		l44.022,97.132l-19.739,4.568H128.21L122.139,620.76z"/>
	<g>
		<path fill="#5F5D6A" d="M117.097,645.286c23.832,7.401,112.372,4.232,127.197,4.81c0.821,0,1.121-0.208,1.041-0.578h536.307
			c8.082,0.335,15.379,0.185,22.352-0.139c0.682,0.058,1.272,0.393,1.954,0.393l102.416,0.809c16.478,0,15.784-14.164,15.784-30.619
			c0-16.466-13.401-29.833-29.845-29.833h-16.813c-9.181-47.584-71.658-106.313-95.848-106.313H338.361
			c0.255-1.666,0.96-3.192,0.96-4.915v-40.865h13.795c5.806,0,10.523-4.706,10.523-10.487c0-5.804-4.717-10.499-10.523-10.499
			h-13.795v-4.418c0-16.5-13.333-29.833-29.81-29.833c-16.478,0-29.787,13.333-29.787,29.833v4.418h-6.094
			c-5.793,0-10.499,4.695-10.499,10.499c0,5.782,4.707,10.487,10.499,10.487h6.094v40.865c0,1.723,0.706,3.249,0.983,4.915H236.13
			c-23.392,0-98.75,54.243-115.922,100.658C116.496,592.245,95.22,638.509,117.097,645.286z M181.297,556.179h616.532
			c4.163,0,7.551,3.7,7.551,8.303c0,4.591-3.388,8.279-7.551,8.279H181.297c-4.221,0-7.575-3.688-7.575-8.279
			C173.722,559.879,177.076,556.179,181.297,556.179z M149.938,609.184h628.385h44.16c4.613,0,8.291,3.736,8.291,8.291
			c0,4.568-3.678,8.28-8.291,8.28h-45.177H149.938c-4.58,0-8.28-3.712-8.28-8.28C141.657,612.92,145.358,609.184,149.938,609.184z"
			/>
		<path fill="#006D73" d="M1091.04,668.146H133.425c-44.265,0-93.409,6.349-81.66,46.276c12.015,40.853,26.134,76.712,49.653,93.547
			l5.134-2.521c0,0,27.52-36.748,110.071-6.996s126.571-3.504,146.761-7.007c20.178-3.504,44.022-5.249,95.386,12.258
			c51.376,17.507,60.546,17.507,113.737,0c53.202-17.507,81.555-12.627,119.251,6.996c20.178,10.511,56.869,8.754,89.883-8.742
			c28.006-14.847,77.046-10.511,106.393,5.25c24.399,13.089,70.698,9.366,108.186-10.477
			c7.91-60.846,64.813-108.325,132.308-105.816C1140.647,691.377,1186.021,663.59,1091.04,668.146z M236.685,755.518H172.96
			c-15.194,0-27.428-11.482-27.428-25.716c0-14.153,12.234-25.659,27.428-25.659h63.725c15.136,0,27.406,11.506,27.406,25.659
			C264.091,744.036,251.821,755.518,236.685,755.518z M406.527,755.518h-63.668c-15.182,0-27.416-11.482-27.416-25.716
			c0-14.153,12.234-25.659,27.416-25.659h63.668c15.17,0,27.509,11.506,27.509,25.659
			C434.036,744.036,421.698,755.518,406.527,755.518z M562.273,755.518h-63.679c-15.184,0-27.428-11.482-27.428-25.716
			c0-14.153,12.245-25.659,27.428-25.659h63.679c15.148,0,27.416,11.506,27.416,25.659
			C589.69,744.036,577.421,755.518,562.273,755.518z M717.961,755.518h-63.667c-15.16,0-27.382-11.482-27.382-25.716
			c0-14.153,12.222-25.659,27.382-25.659h63.667c15.148,0,27.428,11.506,27.428,25.659
			C745.389,744.036,733.109,755.518,717.961,755.518z"/>
	</g>
</g>
</svg>
